# xmcd CD database file
#
# Track frame offsets:
#	150
#	20853
#	39050
#	59722
#
# Disc length: 1035 seconds
#
# Revision: 2
# Processed by: cddbd v1.5.2PL0 Copyright (c) Steve Scherf et al.
# Submitted via: CDex 1.96
#
DISCID=30040904
DTITLE=Miyuki Hashimoto and yozuca - Final Approach
DYEAR=2004
DGENRE=Game
TTITLE0=Final Approach
TTITLE1=Hikarikaze
TTITLE2=Final Approach (off vocal)
TTITLE3=Hikarikaze (off vocal)
EXTD=YEAR: 2004
EXTT0=
EXTT1=
EXTT2=
EXTT3=
PLAYORDER=
